<svg xmlns="http://www.w3.org/2000/svg" width="192" height="14" viewBox="0 0 192 14" fill="none"><path d="M5.88 6.88027C5.82667 6.77361 5.77333 6.69361 5.72 6.64027C5.48 6.32027 5.37333 5.97361 5.4 5.60027V4.32027C5.4 4.13361 5.4 3.86694 5.4 3.52027C5.4 3.14694 5.38667 2.88027 5.36 2.72027C5.30667 2.24027 5.14667 1.88027 4.88 1.64027C4.56 1.32027 4.13333 1.12027 3.6 1.04027C3.09333 0.960272 2.61333 0.973606 2.16 1.08027C1.73333 1.16027 1.33333 1.33361 0.96 1.60027C0.613333 1.84027 0.373333 2.24027 0.24 2.80027C0.186667 2.98694 0.266667 3.10694 0.48 3.16027L0.84 3.20027C1.13333 3.22694 1.36 3.25361 1.52 3.28027C1.6 3.28027 1.66667 3.25361 1.72 3.20027C1.77333 3.14694 1.8 3.09361 1.8 3.04027C1.85333 2.82694 1.96 2.65361 2.12 2.52027C2.36 2.33361 2.64 2.26694 2.96 2.32027C3.14667 2.34694 3.29333 2.42694 3.4 2.56027C3.53333 2.66694 3.61333 2.81361 3.64 3.00027V3.68027L2.2 3.88027C1.77333 3.93361 1.37333 4.06694 1 4.28027C0.573333 4.54694 0.28 4.92027 0.12 5.40027L0 5.88027V6.40027L0.04 6.48027C0.04 6.61361 0.0933333 6.81361 0.2 7.08027C0.36 7.48027 0.64 7.76027 1.04 7.92027C1.36 8.02694 1.68 8.06694 2 8.04027C2.58667 8.04027 3.09333 7.86694 3.52 7.52027C3.68 7.36027 3.81333 7.24027 3.92 7.16027C3.92 7.18694 3.93333 7.21361 3.96 7.24027C4.14667 7.50694 4.34667 7.73361 4.56 7.92027C4.69333 8.02694 4.81333 8.02694 4.92 7.92027L5.84 7.16027C5.92 7.08027 5.93333 6.98694 5.88 6.88027ZM3.64 5.08027C3.64 5.48027 3.61333 5.76027 3.56 5.92027C3.42667 6.34694 3.2 6.62694 2.88 6.76027C2.66667 6.84027 2.45333 6.84027 2.24 6.76027C2.05333 6.68027 1.93333 6.52027 1.88 6.28027C1.77333 5.98694 1.8 5.66694 1.96 5.32027C2.09333 5.10694 2.26667 4.94694 2.48 4.84027C2.77333 4.73361 3.09333 4.68027 3.44 4.68027H3.56C3.61333 4.65361 3.64 4.68027 3.64 4.76027V5.08027ZM7.08 7.96027C7.48 7.96027 7.88 7.96027 8.28 7.96027C8.33333 7.96027 8.38667 7.94694 8.44 7.92027C8.49333 7.89361 8.52 7.81361 8.52 7.68027V4.08027C8.52 3.92027 8.54667 3.68027 8.6 3.36027C8.65333 2.93361 8.86667 2.69361 9.24 2.64027C9.64 2.58694 9.89333 2.70694 10 3.00027C10.08 3.16027 10.12 3.33361 10.12 3.52027C10.1467 3.68027 10.16 3.93361 10.16 4.28027V7.68027C10.16 7.78694 10.1733 7.86694 10.2 7.92027C10.2533 7.94694 10.3333 7.96027 10.44 7.96027H11.56C11.7467 7.96027 11.84 7.86694 11.84 7.68027V4.08027L11.88 3.44027C11.9333 3.12027 12.08 2.89361 12.32 2.76027C12.4533 2.65361 12.6133 2.61361 12.8 2.64027C12.9867 2.64027 13.1333 2.70694 13.24 2.84027C13.3733 2.94694 13.44 3.12027 13.44 3.36027V7.68027C13.44 7.86694 13.5333 7.96027 13.72 7.96027H14.88C15.0667 7.96027 15.16 7.86694 15.16 7.68027V3.16027C15.16 3.00027 15.1333 2.76027 15.08 2.44027V2.36027C15 1.88027 14.7333 1.53361 14.28 1.32027C13.8533 1.08027 13.44 1.00027 13.04 1.08027C12.56 1.16027 12.2 1.38694 11.96 1.76027C11.88 1.84027 11.7867 1.98694 11.68 2.20027C11.3867 1.42694 10.8533 1.05361 10.08 1.08027C9.30667 1.08027 8.77333 1.45361 8.48 2.20027H8.44V1.44027C8.44 1.28027 8.34667 1.20027 8.16 1.20027H7.08C6.92 1.20027 6.84 1.29361 6.84 1.48027V7.72027C6.84 7.88027 6.92 7.96027 7.08 7.96027ZM17.28 7.92027C17.4933 8.00027 17.8 8.04027 18.2 8.04027C18.7867 8.04027 19.2933 7.86694 19.72 7.52027C19.8267 7.44027 19.96 7.32027 20.12 7.16027C20.1467 7.18694 20.16 7.21361 20.16 7.24027C20.3467 7.50694 20.5467 7.73361 20.76 7.92027C20.8933 8.05361 21.0267 8.05361 21.16 7.92027L22.08 7.16027C22.16 7.08027 22.1733 7.01361 22.12 6.96027C22.0933 6.88027 22.0533 6.80027 22 6.72027L21.96 6.64027C21.72 6.32027 21.6 5.97361 21.6 5.60027V3.24027C21.6 3.08027 21.5733 2.81361 21.52 2.44027C21.44 1.98694 21.2133 1.65361 20.84 1.44027C20.4933 1.20027 20.1333 1.06694 19.76 1.04027C19.12 0.933606 18.48 0.98694 17.84 1.20027C17.44 1.38694 17.12 1.61361 16.88 1.88027C16.6667 2.12027 16.52 2.42694 16.44 2.80027C16.3867 3.01361 16.48 3.13361 16.72 3.16027C16.96 3.16027 17.2933 3.18694 17.72 3.24027C17.88 3.26694 17.9867 3.18694 18.04 3.00027C18.0933 2.78694 18.1867 2.62694 18.32 2.52027C18.6133 2.30694 18.9067 2.24027 19.2 2.32027C19.4933 2.37361 19.6933 2.52027 19.8 2.76027C19.8533 2.92027 19.88 3.14694 19.88 3.44027V3.64027L19.84 3.68027C19.68 3.68027 19.4667 3.70694 19.2 3.76027L18.16 3.88027C17.7867 3.96027 17.44 4.12027 17.12 4.36027C16.6667 4.68027 16.3867 5.12027 16.28 5.68027C16.2 6.21361 16.2533 6.68027 16.44 7.08027C16.6267 7.48027 16.9067 7.76027 17.28 7.92027ZM18.16 5.36027C18.2667 5.14694 18.44 4.98694 18.68 4.88027C18.9467 4.74694 19.2667 4.68027 19.64 4.68027H19.68C19.7867 4.68027 19.84 4.69361 19.84 4.72027C19.8667 4.72027 19.88 4.77361 19.88 4.88027V5.08027C19.88 5.45361 19.8533 5.74694 19.8 5.96027C19.64 6.36027 19.4267 6.62694 19.16 6.76027C18.8933 6.86694 18.64 6.86694 18.4 6.76027C18.1867 6.62694 18.0667 6.40027 18.04 6.08027C18.04 5.76027 18.08 5.52027 18.16 5.36027ZM40 3.64027C40 3.10694 39.9733 2.70694 39.92 2.44027C39.84 1.98694 39.64 1.64027 39.32 1.40027C38.9467 1.10694 38.52 1.00027 38.04 1.08027C37.88 1.08027 37.6933 1.12027 37.48 1.20027C37.2133 1.28027 36.96 1.53361 36.72 1.96027C36.6667 2.04027 36.6133 2.16027 36.56 2.32027H36.52V1.44027C36.52 1.28027 36.44 1.20027 36.28 1.20027H35.16C35 1.20027 34.92 1.28027 34.92 1.44027V7.68027C34.92 7.86694 35.0133 7.96027 35.2 7.96027H36.32C36.5067 7.96027 36.6 7.86694 36.6 7.68027V4.36027L36.64 3.72027C36.6933 3.40027 36.7867 3.13361 36.92 2.92027C37.1333 2.60027 37.4267 2.50694 37.8 2.64027C37.9867 2.72027 38.12 2.86694 38.2 3.08027C38.2267 3.18694 38.2533 3.34694 38.28 3.56027L38.32 3.80027V7.68027C38.32 7.78694 38.3333 7.86694 38.36 7.92027C38.4133 7.94694 38.4933 7.96027 38.6 7.96027H39.72C39.9067 7.96027 40 7.85361 40 7.64027V3.64027ZM33.44 2.36027C33.2533 2.04027 32.9867 1.74694 32.64 1.48027C32.16 1.13361 31.6 0.986938 30.96 1.04027C30.5867 1.09361 30.2533 1.18694 29.96 1.32027C29.4267 1.58694 29.0133 2.05361 28.72 2.72027C28.5333 3.17361 28.4133 3.76027 28.36 4.48027C28.36 5.09361 28.44 5.65361 28.6 6.16027C28.7867 6.66694 29.04 7.08027 29.36 7.40027C29.84 7.85361 30.4667 8.08027 31.24 8.08027C31.56 8.10694 31.9467 8.01361 32.4 7.80027C32.7467 7.64027 33.0667 7.33361 33.36 6.88027C33.68 6.40027 33.88 5.88027 33.96 5.32027C33.9867 4.97361 33.9867 4.60027 33.96 4.20027C33.9067 3.50694 33.7333 2.89361 33.44 2.36027ZM32.16 5.12027C32.16 5.49361 32.1067 5.81361 32 6.08027C31.92 6.34694 31.7733 6.54694 31.56 6.68027C31.4 6.78694 31.2267 6.82694 31.04 6.80027C30.8533 6.74694 30.7067 6.64027 30.6 6.48027C30.44 6.29361 30.3333 6.02694 30.28 5.68027C30.2533 5.57361 30.2267 5.44027 30.2 5.28027C30.2 5.09361 30.2 4.81361 30.2 4.44027H30.16L30.28 3.36027C30.3067 3.14694 30.3867 2.93361 30.52 2.72027C30.7067 2.37361 31.0133 2.25361 31.44 2.36027C31.7333 2.46694 31.92 2.68027 32 3.00027C32.0533 3.24027 32.1067 3.54694 32.16 3.92027V5.12027ZM24.92 10.0003C24.7867 9.92027 24.68 9.89361 24.6 9.92027C24.3867 9.97361 24.2133 10.0269 24.08 10.0803L23.6 10.2803C23.3867 10.3336 23.2133 10.3869 23.08 10.4403L22.68 10.5603C22.6533 10.5869 22.5867 10.6136 22.48 10.6403C22.4 10.6669 22.3333 10.6936 22.28 10.7203L21.76 10.8403L21.36 10.9603L20.96 11.0403C20.7467 11.0936 20.6 11.1203 20.52 11.1203C20.3333 11.1736 20.0533 11.2269 19.68 11.2803L19.64 11.3203C19.56 11.3469 19.5067 11.3603 19.48 11.3603C19.2933 11.3603 19.1467 11.3736 19.04 11.4003C18.7733 11.4003 18.3733 11.4269 17.84 11.4803C17.68 11.5069 17.4133 11.5203 17.04 11.5203C16.1333 11.5736 15.3067 11.5603 14.56 11.4803L13.56 11.3603C13.32 11.3336 12.96 11.2669 12.48 11.1603L12.04 11.1203L11.68 11.0003L11.2 10.9203L10.96 10.8003L10.08 10.6003L9.76 10.4803L9.6 10.4003L8.88 10.1603L8.44 9.96027C8.36 9.96027 8.30667 9.94694 8.28 9.92027L7.96 9.80027L7.8 9.72027C7.72 9.69361 7.6 9.62694 7.44 9.52027L6.72 9.20027L6.2 8.88027C6.14667 8.85361 6.08 8.81361 6 8.76027L5.92 8.72027C5.76 8.66694 5.68 8.72027 5.68 8.88027C5.68 8.93361 5.69333 8.97361 5.72 9.00027C5.8 9.05361 5.90667 9.14694 6.04 9.28027L7.04 10.0403C7.12 10.0936 7.21333 10.1603 7.32 10.2403C7.42667 10.3203 7.58667 10.4403 7.8 10.6003L8 10.7203C8.21333 10.8269 8.36 10.9069 8.44 10.9603C8.52 11.0136 8.61333 11.0803 8.72 11.1603C8.85333 11.2136 8.94667 11.2536 9 11.2803C9.10667 11.3603 9.29333 11.4536 9.56 11.5603L9.8 11.6403C9.88 11.6936 10.0133 11.7469 10.2 11.8003L10.36 11.8803C10.4667 11.9336 10.6267 11.9869 10.84 12.0403L10.92 12.1203C11 12.1469 11.0533 12.1603 11.08 12.1603L11.56 12.3203C11.72 12.3469 11.8267 12.3869 11.88 12.4403L12.2 12.4803L12.48 12.5603C12.5067 12.5869 12.5467 12.6003 12.6 12.6003C12.68 12.6003 12.7733 12.6269 12.88 12.6803C13.0133 12.6803 13.16 12.7069 13.32 12.7603L13.76 12.8003C14.08 12.8803 14.4 12.9203 14.72 12.9203C15.1467 12.9736 15.4667 13.0003 15.68 13.0003H16.64L17.32 12.9603C17.3733 12.9336 17.4267 12.9203 17.48 12.9203C17.56 12.9203 17.6133 12.9203 17.64 12.9203C17.8 12.9203 18.0133 12.8936 18.28 12.8403L18.76 12.8003L19.2 12.7203L19.24 12.6803C19.2667 12.6536 19.2933 12.6536 19.32 12.6803L19.6 12.6403L20.28 12.4803L20.6 12.3603C20.8667 12.3069 21.0533 12.2536 21.16 12.2003C21.32 12.1469 21.56 12.0669 21.88 11.9603L22.4 11.7603L23.12 11.4003C23.2 11.3736 23.2533 11.3469 23.28 11.3203L24.16 10.8403C24.2667 10.7869 24.4267 10.6803 24.64 10.5203L24.88 10.3203C24.9067 10.2936 24.92 10.2403 24.92 10.1603C24.9467 10.0803 24.9467 10.0269 24.92 10.0003ZM27.56 6.24027C27.0533 5.97361 26.48 5.81361 25.84 5.76027H25.28V5.72027L25.32 5.64027L27.48 2.56027C27.6133 2.37361 27.68 2.17361 27.68 1.96027C27.6533 1.88027 27.6533 1.77361 27.68 1.64027V1.44027C27.68 1.25361 27.5733 1.16027 27.36 1.16027H23.4C23.2133 1.16027 23.12 1.25361 23.12 1.44027V2.24027C23.12 2.42694 23.2133 2.52027 23.4 2.52027H25.48L25.44 2.60027L24.52 3.92027C23.9333 4.77361 23.48 5.41361 23.16 5.84027C22.9733 6.08027 22.88 6.32027 22.88 6.56027C22.9067 6.69361 22.9067 6.88027 22.88 7.12027V7.60027C22.9067 7.68027 22.9467 7.73361 23 7.76027C23.08 7.78694 23.16 7.78694 23.24 7.76027C23.56 7.60027 23.88 7.48027 24.2 7.40027C24.6267 7.29361 25.0533 7.25361 25.48 7.28027C25.8 7.28027 26.12 7.32027 26.44 7.40027C26.7867 7.48027 27.12 7.60027 27.44 7.76027C27.52 7.81361 27.5867 7.82694 27.64 7.80027C27.72 7.74694 27.76 7.66694 27.76 7.56027C27.8133 7.24027 27.8133 6.92027 27.76 6.60027C27.76 6.41361 27.6933 6.29361 27.56 6.24027ZM26.68 8.52027C26.5733 8.46694 26.4533 8.42694 26.32 8.40027C25.8667 8.32027 25.4533 8.29361 25.08 8.32027C24.92 8.32027 24.7867 8.33361 24.68 8.36027L24.48 8.40027C24.2933 8.42694 24.1467 8.45361 24.04 8.48027C23.96 8.50694 23.8267 8.56027 23.64 8.64027L23.52 8.68027C23.4933 8.68027 23.4667 8.69361 23.44 8.72027C23.44 8.72027 23.4533 8.73361 23.48 8.76027C23.4267 8.73361 23.36 8.74694 23.28 8.80027C23.2267 8.82694 23.12 8.89361 22.96 9.00027L22.92 9.16027H23.36L23.68 9.12027C24.0533 9.06694 24.3333 9.05361 24.52 9.08027H25.32C25.6133 9.13361 25.8 9.22694 25.88 9.36027V9.60027C25.9067 9.76027 25.9067 9.88027 25.88 9.96027L25.8 10.2803C25.7467 10.5203 25.6933 10.7069 25.64 10.8403C25.64 10.8669 25.64 10.9069 25.64 10.9603C25.64 11.0136 25.6133 11.0669 25.56 11.1203C25.5333 11.1469 25.4933 11.2269 25.44 11.3603L25.32 11.8003C25.32 11.8269 25.32 11.8403 25.32 11.8403H25.28C25.2267 11.8936 25.2 11.9336 25.2 11.9603L25.24 12.1203C25.32 12.1203 25.3733 12.1069 25.4 12.0803L25.6 11.9203C25.76 11.7603 25.8667 11.6403 25.92 11.5603L26.16 11.2003C26.2133 11.1203 26.2933 10.9869 26.4 10.8003L26.44 10.6803C26.4933 10.5736 26.5467 10.4136 26.6 10.2003C26.6 10.1469 26.6267 10.0936 26.68 10.0403L26.72 9.76027C26.8267 9.33361 26.8667 9.00027 26.84 8.76027C26.7867 8.62694 26.7333 8.54694 26.68 8.52027ZM25.24 8.32027H25.44H25.24Z" fill="#212121"></path><path d="M87.3106 5.32027V0.560272H86.0706V3.72027L85.3506 2.48027C84.9506 1.86694 84.6706 1.40027 84.5106 1.08027C84.3773 0.866939 84.244 0.720272 84.1106 0.640273C83.9773 0.533606 83.7906 0.493606 83.5506 0.520272C83.3906 0.546939 83.1373 0.546939 82.7906 0.520272H82.3906V4.80027L81.2306 2.36027C80.9106 1.61361 80.6573 1.05361 80.4706 0.680273C80.4706 0.600272 80.4173 0.560272 80.3106 0.560272C79.9906 0.533606 79.4973 0.520272 78.8306 0.520272L78.7906 0.640273L78.0706 2.28027C77.7506 3.08027 77.4973 3.66694 77.3106 4.04027C77.3106 4.06694 77.2973 4.10694 77.2706 4.16027C77.244 4.18694 77.2173 4.20027 77.1906 4.20027H77.0706C76.8573 4.20027 76.6973 4.18694 76.5906 4.16027C76.4306 4.13361 76.2973 4.05361 76.1906 3.92027C75.9773 3.70694 75.844 3.41361 75.7906 3.04027C75.764 2.66694 75.844 2.34694 76.0306 2.08027C76.244 1.76027 76.5773 1.60027 77.0306 1.60027H77.9106V0.520272H77.3906C76.964 0.546939 76.644 0.546939 76.4306 0.520272C76.0573 0.520272 75.7373 0.62694 75.4706 0.840274C75.204 1.05361 75.004 1.32027 74.8706 1.64027C74.604 2.30694 74.5506 3.02694 74.7106 3.80027C74.844 4.33361 75.0706 4.72027 75.3906 4.96027C75.7106 5.20027 76.124 5.32027 76.6306 5.32027H77.8706C77.9773 5.34694 78.0706 5.30694 78.1506 5.20027V5.16027C78.2306 4.89361 78.3373 4.60027 78.4706 4.28027H80.6706C80.6973 4.28027 80.724 4.29361 80.7506 4.32027C80.804 4.34694 80.8306 4.37361 80.8306 4.40027L81.1906 5.16027C81.2173 5.26694 81.3106 5.32027 81.4706 5.32027H83.6306V1.96027L85.4706 4.96027C85.5506 5.12027 85.6306 5.22694 85.7106 5.28027C85.7906 5.33361 85.9106 5.34694 86.0706 5.32027H87.3106ZM78.9106 3.20027C79.2306 2.45361 79.4706 1.88027 79.6306 1.48027L80.4306 3.20027H78.9106ZM70.8306 8.68027C69.4973 8.68027 68.1506 8.68027 66.7906 8.68027C66.6573 8.68027 66.5506 8.72027 66.4706 8.80027L65.2706 10.1203C65.0573 9.85361 64.7373 9.48027 64.3106 9.00027C64.1506 8.78694 63.9373 8.68027 63.6706 8.68027H59.4306V13.4003C59.4306 13.4269 59.444 13.4403 59.4706 13.4403H63.7506C63.8573 13.4403 63.924 13.4003 63.9506 13.3203L64.7506 12.4403C64.8573 12.3069 65.0173 12.1336 65.2306 11.9203L66.3506 13.2403C66.5373 13.4269 66.7106 13.5069 66.8706 13.4803H68.8706V11.8003H69.5906C70.204 11.8269 70.6573 11.8269 70.9506 11.8003C71.484 11.7469 71.8306 11.4803 71.9906 11.0003C72.124 10.7069 72.164 10.3336 72.1106 9.88027C72.084 9.50694 71.9506 9.21361 71.7106 9.00027C71.4973 8.78694 71.204 8.68027 70.8306 8.68027ZM63.3906 12.3603C63.284 12.4136 63.204 12.4403 63.1506 12.4403C62.5906 12.4669 61.724 12.4803 60.5506 12.4803V11.4403H63.1506V10.6403H60.5506V9.68027H63.1106C63.164 9.68027 63.244 9.70694 63.3506 9.76027C63.884 10.2936 64.284 10.7069 64.5506 11.0003C64.0173 11.5869 63.6306 12.0403 63.3906 12.3603ZM67.7106 13.0003C67.604 12.8669 67.444 12.6936 67.2306 12.4803L67.0706 12.2803C66.644 11.7469 66.3106 11.3603 66.0706 11.1203C66.044 11.0669 66.0306 11.0269 66.0306 11.0003C66.0306 10.9469 66.044 10.9069 66.0706 10.8803L67.5106 9.24027L67.7106 9.08027V13.0003ZM70.5506 10.8403C69.9906 10.8403 69.4173 10.8403 68.8306 10.8403V9.72027H70.5906C70.6973 9.74694 70.7906 9.81361 70.8706 9.92027C70.9506 10.0269 70.9906 10.1469 70.9906 10.2803C70.9906 10.4136 70.9373 10.5336 70.8306 10.6403C70.7506 10.7469 70.6573 10.8136 70.5506 10.8403ZM59.9506 5.20027C60.004 5.06694 60.084 4.88027 60.1906 4.64027L60.8306 3.28027C61.0973 2.69361 61.2973 2.25361 61.4306 1.96027C61.4573 1.96027 61.4706 1.96027 61.4706 1.96027V5.28027H62.6706V0.520272H60.7506L59.3506 3.64027L59.1106 3.12027C59.004 2.85361 58.8306 2.46694 58.5906 1.96027L58.1906 1.04027C58.084 0.773606 57.9906 0.62694 57.9106 0.600272C57.8306 0.54694 57.6306 0.520272 57.3106 0.520272H56.0706V4.92027C55.884 4.54694 55.6306 3.98694 55.3106 3.24027L54.1506 0.640273C54.0973 0.586939 54.044 0.546939 53.9906 0.520272H52.5106L50.3906 5.28027H51.7106C51.8706 4.85361 52.004 4.54694 52.1106 4.36027C52.164 4.28027 52.2306 4.24027 52.3106 4.24027H54.3106C54.4173 4.24027 54.484 4.28027 54.5106 4.36027L54.8306 5.12027C54.8573 5.22694 54.9373 5.28027 55.0706 5.28027H57.3106V2.00027L57.3906 2.12027C57.6573 2.73361 58.084 3.68027 58.6706 4.96027C58.724 5.12027 58.764 5.21361 58.7906 5.24027C58.844 5.26694 58.964 5.28027 59.1506 5.28027H59.7906L59.8706 5.24027C59.924 5.24027 59.9506 5.22694 59.9506 5.20027ZM52.5506 3.20027C52.8706 2.45361 53.124 1.88027 53.3106 1.48027L54.0306 3.20027H52.5506ZM77.0706 9.56027C76.9906 9.26694 76.844 9.05361 76.6306 8.92027C76.4173 8.76027 76.164 8.68027 75.8706 8.68027H72.6706V13.4803H73.8706V11.8003H75.3506C75.4573 11.8003 75.564 11.8536 75.6706 11.9603C75.7773 12.0403 75.844 12.1469 75.8706 12.2803L75.9506 13.4803H77.1106V12.4003L77.0306 11.8803C76.9506 11.5603 76.7506 11.3603 76.4306 11.2803L76.5106 11.1603C76.7773 11.0003 76.9506 10.7736 77.0306 10.4803C77.1373 10.1603 77.1506 9.85361 77.0706 9.56027ZM75.4306 10.8003C74.924 10.8003 74.404 10.8003 73.8706 10.8003V9.68027H75.5106C75.6173 9.70694 75.7106 9.78694 75.7906 9.92027C75.8973 10.0269 75.9506 10.1469 75.9506 10.2803C75.9506 10.6003 75.7773 10.7736 75.4306 10.8003ZM72.3106 4.00027C72.3106 3.81361 72.244 3.62694 72.1106 3.44027C72.004 3.25361 71.8306 3.12027 71.5906 3.04027L71.7506 3.00027C72.044 2.84027 72.2306 2.61361 72.3106 2.32027C72.3906 2.00027 72.3906 1.70694 72.3106 1.44027C72.2573 1.14694 72.1106 0.933607 71.8706 0.800274C71.6573 0.640273 71.4173 0.546939 71.1506 0.520272H68.1106C68.0306 0.520272 67.964 0.533606 67.9106 0.560272V5.28027H69.1506V3.64027H70.6306C70.7373 3.66694 70.8306 3.73361 70.9106 3.84027C71.0173 3.92027 71.084 4.02694 71.1106 4.16027C71.1373 4.26694 71.1506 4.46694 71.1506 4.76027L71.2306 5.28027H72.3906V5.04027C72.3373 4.56027 72.3106 4.21361 72.3106 4.00027ZM70.6706 2.64027C70.164 2.64027 69.644 2.64027 69.1106 2.64027V1.56027H70.0706C70.3106 1.56027 70.484 1.54694 70.5906 1.52027C70.7773 1.52027 70.924 1.57361 71.0306 1.68027C71.1373 1.78694 71.1906 1.92027 71.1906 2.08027C71.2173 2.24027 71.1773 2.37361 71.0706 2.48027C70.9906 2.58694 70.8573 2.64027 70.6706 2.64027ZM67.2706 4.28027H64.6706V3.40027H67.1906V2.40027H64.6706V1.60027H67.2706V0.560272H63.4306V5.28027H67.2706V4.28027ZM77.7106 13.4003H81.5506V12.4003H78.8706V11.4803H81.4306V10.5603H78.8706V9.72027H81.5506V8.68027H77.6706C77.6973 9.74694 77.7106 11.3203 77.7106 13.4003ZM85.3906 10.7203C85.0706 10.6136 84.8173 10.5469 84.6306 10.5203C84.524 10.4936 84.364 10.4803 84.1506 10.4803C83.9373 10.4803 83.7773 10.4803 83.6706 10.4803H83.5906C83.3773 10.4269 83.244 10.3336 83.1906 10.2003C83.1373 10.0669 83.1506 9.96027 83.2306 9.88027C83.3106 9.77361 83.4306 9.72027 83.5906 9.72027H85.7906V8.72027C85.7906 8.69361 85.7906 8.68027 85.7906 8.68027H84.8706C84.0706 8.65361 83.4706 8.65361 83.0706 8.68027C82.6173 8.73361 82.2973 8.94694 82.1106 9.32027C82.004 9.50694 81.9506 9.81361 81.9506 10.2403C81.9773 10.6136 82.0573 10.8936 82.1906 11.0803C82.3506 11.2669 82.5773 11.3869 82.8706 11.4403C83.164 11.4936 83.5906 11.5469 84.1506 11.6003H84.2706C84.404 11.6003 84.5106 11.6269 84.5906 11.6803C84.6973 11.7336 84.7506 11.8136 84.7506 11.9203C84.7773 12.0269 84.7506 12.1203 84.6706 12.2003C84.5906 12.2803 84.4973 12.3336 84.3906 12.3603L84.3106 12.4003C84.1506 12.4269 84.0306 12.4403 83.9506 12.4403H82.0306V13.4403C82.0573 13.4669 82.084 13.4803 82.1106 13.4803C83.3106 13.4803 84.2173 13.4669 84.8306 13.4403C85.2573 13.4136 85.604 13.1736 85.8706 12.7203C86.0306 12.3736 86.0706 11.9469 85.9906 11.4403C85.884 11.0669 85.684 10.8269 85.3906 10.7203ZM90.3506 11.6003C90.324 11.2803 90.2173 11.0403 90.0306 10.8803C89.844 10.7203 89.5906 10.6136 89.2706 10.5603L88.0706 10.4803C88.0173 10.4803 87.9373 10.4669 87.8306 10.4403L87.7506 10.4003C87.5906 10.3469 87.5106 10.2269 87.5106 10.0403C87.5373 9.82694 87.684 9.72027 87.9506 9.72027H90.1506V8.68027H89.2306C88.4573 8.65361 87.8706 8.65361 87.4706 8.68027C87.0973 8.68027 86.7906 8.84027 86.5506 9.16027C86.3906 9.42694 86.3106 9.77361 86.3106 10.2003C86.3106 10.5203 86.3906 10.8003 86.5506 11.0403C86.7373 11.2536 86.9773 11.3869 87.2706 11.4403C87.484 11.4669 87.7906 11.4936 88.1906 11.5203L88.6706 11.5603C88.8573 11.5869 88.9906 11.6536 89.0706 11.7603C89.1506 11.8669 89.1506 12.0003 89.0706 12.1603C88.9906 12.2936 88.8573 12.3603 88.6706 12.3603L86.4706 12.4003V13.4003H87.3506C88.1506 13.4269 88.7506 13.4403 89.1506 13.4403C89.5773 13.4136 89.924 13.2003 90.1906 12.8003C90.3773 12.4536 90.4306 12.0536 90.3506 11.6003ZM74.1506 0.560272H72.9106V5.28027H74.1506V0.560272Z" fill="#212121"></path><path d="M130.701 3.44027C130.648 2.80027 130.368 2.30694 129.861 1.96027C129.461 1.69361 128.928 1.53361 128.261 1.48027C127.941 1.42694 127.515 1.41361 126.981 1.44027H124.901C124.741 1.44027 124.608 1.49361 124.501 1.60027C124.395 1.68027 124.315 1.78694 124.261 1.92027L123.101 7.04027L122.581 9.20027C122.555 9.52027 122.701 9.68027 123.021 9.68027H124.101C124.261 9.68027 124.395 9.64027 124.501 9.56027C124.608 9.45361 124.688 9.33361 124.741 9.20027L125.141 7.44027C125.195 7.30694 125.275 7.20027 125.381 7.12027C125.488 7.04027 125.595 7.00027 125.701 7.00027H126.581C127.675 6.89361 128.501 6.68027 129.061 6.36027C130.235 5.72027 130.781 4.74694 130.701 3.44027ZM128.421 4.12027C128.315 4.76027 127.941 5.16027 127.301 5.32027C126.981 5.40027 126.661 5.44027 126.341 5.44027C126.181 5.44027 126.048 5.42694 125.941 5.40027C125.861 5.37361 125.795 5.33361 125.741 5.28027C125.688 5.20027 125.675 5.10694 125.701 5.00027L126.061 3.40027C126.168 3.10694 126.355 2.96027 126.621 2.96027C127.075 2.96027 127.421 2.98694 127.661 3.04027C128.248 3.14694 128.501 3.50694 128.421 4.12027ZM108.901 3.32027C108.821 2.62694 108.475 2.12027 107.861 1.80027C107.435 1.61361 106.888 1.49361 106.221 1.44027C105.875 1.41361 105.395 1.40027 104.781 1.40027H103.101C102.755 1.40027 102.541 1.57361 102.461 1.92027L101.781 5.00027C101.541 5.93361 101.208 7.33361 100.781 9.20027C100.755 9.33361 100.781 9.45361 100.861 9.56027C100.941 9.64027 101.048 9.68027 101.181 9.68027H102.341C102.475 9.68027 102.595 9.64027 102.701 9.56027C102.808 9.45361 102.888 9.33361 102.941 9.20027C103.101 8.45361 103.221 7.89361 103.301 7.52027C103.408 7.14694 103.635 6.96027 103.981 6.96027C104.541 6.96027 104.968 6.94694 105.261 6.92027C106.061 6.84027 106.728 6.64027 107.261 6.32027C107.928 5.97361 108.395 5.49361 108.661 4.88027C108.875 4.48027 108.955 3.96027 108.901 3.32027ZM106.621 4.00027C106.595 4.66694 106.221 5.09361 105.501 5.28027C105.101 5.41361 104.688 5.45361 104.261 5.40027C104.128 5.40027 104.021 5.36027 103.941 5.28027C103.888 5.17361 103.875 5.05361 103.901 4.92027L104.261 3.40027C104.315 3.26694 104.395 3.16027 104.501 3.08027C104.608 2.97361 104.728 2.92027 104.861 2.92027H105.141C105.435 2.92027 105.715 2.96027 105.981 3.04027C106.461 3.14694 106.675 3.46694 106.621 4.00027ZM122.581 3.36027C122.155 3.36027 121.741 3.36027 121.341 3.36027C120.941 3.36027 120.635 3.53361 120.421 3.88027C120.368 3.93361 120.315 4.01361 120.261 4.12027L118.541 7.04027C118.541 7.12027 118.501 7.16027 118.421 7.16027C118.368 7.16027 118.341 7.10694 118.341 7.00027L117.861 4.04027C117.781 3.58694 117.515 3.36027 117.061 3.36027H116.101C115.968 3.36027 115.861 3.41361 115.781 3.52027C115.728 3.60027 115.715 3.70694 115.741 3.84027L116.501 8.32027C116.608 8.96027 116.688 9.44027 116.741 9.76027V9.88027C116.741 10.0936 116.715 10.2403 116.661 10.3203L115.821 11.8003C115.688 12.0136 115.608 12.1736 115.581 12.2803C115.555 12.3603 115.555 12.4269 115.581 12.4803C115.635 12.5336 115.715 12.5603 115.821 12.5603H117.021C117.155 12.5869 117.301 12.5603 117.461 12.4803C117.621 12.4003 117.768 12.2403 117.901 12.0003L122.021 5.00027C122.235 4.62694 122.408 4.34694 122.541 4.16027L122.621 4.04027C122.701 3.88027 122.755 3.74694 122.781 3.64027C122.835 3.45361 122.768 3.36027 122.581 3.36027ZM135.941 3.52027C135.541 3.38694 135.181 3.32027 134.861 3.32027C134.088 3.24027 133.208 3.29361 132.221 3.48027C131.875 3.53361 131.648 3.70694 131.541 4.00027C131.461 4.26694 131.408 4.50694 131.381 4.72027C131.355 4.82694 131.368 4.90694 131.421 4.96027C131.475 5.01361 131.555 5.02694 131.661 5.00027C131.928 4.89361 132.355 4.78694 132.941 4.68027C133.475 4.60027 133.968 4.62694 134.421 4.76027C134.795 4.84027 134.955 5.05361 134.901 5.40027C134.901 5.48027 134.888 5.53361 134.861 5.56027C134.835 5.58694 134.781 5.60027 134.701 5.60027H134.581C134.021 5.65361 133.595 5.70694 133.301 5.76027H133.261C132.515 5.86694 131.968 6.00027 131.621 6.16027C130.688 6.50694 130.168 7.13361 130.061 8.04027C130.008 8.49361 130.101 8.89361 130.341 9.24027C130.581 9.56027 130.915 9.76027 131.341 9.84027C132.141 9.97361 132.888 9.81361 133.581 9.36027C133.795 9.20027 133.955 9.09361 134.061 9.04027V9.16027C133.981 9.50694 134.115 9.68027 134.461 9.68027H135.381C135.728 9.68027 135.941 9.50694 136.021 9.16027L136.781 5.96027C136.861 5.58694 136.915 5.29361 136.941 5.08027C137.021 4.28027 136.688 3.76027 135.941 3.52027ZM134.581 6.88027C134.501 7.22694 134.421 7.58694 134.341 7.96027C134.315 8.06694 134.221 8.14694 134.061 8.20027C133.688 8.44027 133.341 8.56027 133.021 8.56027C132.861 8.56027 132.675 8.53361 132.461 8.48027C132.248 8.40027 132.141 8.24027 132.141 8.00027C132.088 7.54694 132.301 7.24027 132.781 7.08027C133.048 6.97361 133.355 6.89361 133.701 6.84027L134.461 6.76027C134.595 6.76027 134.635 6.80027 134.581 6.88027ZM114.301 3.60027C113.981 3.44027 113.475 3.33361 112.781 3.28027C111.981 3.25361 111.155 3.32027 110.301 3.48027C110.008 3.56027 109.821 3.70694 109.741 3.92027C109.688 4.13361 109.635 4.38694 109.581 4.68027C109.528 4.97361 109.621 5.08027 109.861 5.00027C110.341 4.81361 110.795 4.69361 111.221 4.64027C111.648 4.58694 112.115 4.62694 112.621 4.76027C112.968 4.84027 113.128 5.05361 113.101 5.40027C113.101 5.48027 113.088 5.53361 113.061 5.56027C113.035 5.58694 112.981 5.60027 112.901 5.60027C112.261 5.65361 111.781 5.70694 111.461 5.76027C110.821 5.86694 110.341 5.97361 110.021 6.08027C109.568 6.2136 109.195 6.41361 108.901 6.68027C108.528 7.02694 108.315 7.52027 108.261 8.16027C108.235 8.58694 108.341 8.96027 108.581 9.28027C108.848 9.60027 109.195 9.78694 109.621 9.84027C110.448 9.92027 111.195 9.74694 111.861 9.32027C111.968 9.21361 112.101 9.12027 112.261 9.04027V9.16027C112.235 9.32027 112.248 9.45361 112.301 9.56027C112.381 9.64027 112.501 9.68027 112.661 9.68027H113.621C113.755 9.68027 113.875 9.64027 113.981 9.56027C114.088 9.45361 114.168 9.33361 114.221 9.20027L114.901 6.12027C115.035 5.61361 115.115 5.22694 115.141 4.96027C115.195 4.29361 114.915 3.84027 114.301 3.60027ZM112.781 6.88027C112.755 6.98694 112.715 7.16027 112.661 7.40027L112.541 7.92027C112.515 8.02694 112.448 8.10694 112.341 8.16027C111.915 8.42694 111.541 8.56027 111.221 8.56027C111.088 8.56027 110.901 8.53361 110.661 8.48027C110.448 8.40027 110.341 8.22694 110.341 7.96027C110.341 7.50694 110.568 7.20027 111.021 7.04027C111.235 6.96027 111.581 6.89361 112.061 6.84027L112.661 6.76027C112.715 6.76027 112.741 6.77361 112.741 6.80027C112.768 6.80027 112.781 6.82694 112.781 6.88027ZM140.381 1.48027H139.341C139.208 1.48027 139.088 1.53361 138.981 1.64027C138.875 1.72027 138.795 1.82694 138.741 1.96027C138.581 2.76027 138.448 3.36027 138.341 3.76027L137.141 9.20027C137.115 9.33361 137.141 9.45361 137.221 9.56027C137.301 9.64027 137.421 9.68027 137.581 9.68027H138.581C138.715 9.68027 138.835 9.64027 138.941 9.56027C139.048 9.45361 139.128 9.33361 139.181 9.20027L140.781 1.92027C140.808 1.78694 140.781 1.68027 140.701 1.60027C140.621 1.52027 140.515 1.48027 140.381 1.48027Z" fill="#212121"></path><path d="M156.132 5.00027C156.319 5.08027 156.572 5.21361 156.892 5.40027L157.172 5.56027C157.385 5.66694 157.532 5.84027 157.612 6.08027C157.692 6.29361 157.679 6.52027 157.572 6.76027C157.492 6.97361 157.345 7.13361 157.132 7.24027C156.919 7.32027 156.692 7.33361 156.452 7.28027C155.945 7.14694 155.532 7.01361 155.212 6.88027L155.172 6.96027C155.812 7.46694 156.639 8.16027 157.652 9.04027C157.705 9.09361 157.745 9.12027 157.772 9.12027C157.825 9.09361 157.865 9.05361 157.892 9.00027L162.812 3.16027C162.865 3.08027 162.892 3.01361 162.892 2.96027C162.919 2.90694 162.892 2.84027 162.812 2.76027C162.145 2.22694 161.172 1.42694 159.892 0.360272C159.839 0.30694 159.785 0.280273 159.732 0.280273C159.705 0.280273 159.665 0.30694 159.612 0.360272C159.345 0.706939 158.919 1.22694 158.332 1.92027L156.052 4.60027C155.972 4.70694 155.932 4.78694 155.932 4.84027C155.959 4.89361 156.025 4.94694 156.132 5.00027ZM158.692 3.28027C159.092 3.30694 159.439 3.46694 159.732 3.76027C160.025 4.05361 160.172 4.38694 160.172 4.76027C160.172 5.13361 160.039 5.45361 159.772 5.72027C159.532 5.96027 159.212 6.08027 158.812 6.08027C158.439 6.05361 158.105 5.89361 157.812 5.60027C157.519 5.30694 157.372 4.97361 157.372 4.60027C157.372 4.22694 157.492 3.92027 157.732 3.68027C157.999 3.41361 158.319 3.28027 158.692 3.28027ZM161.092 12.6803C161.145 12.7869 161.239 12.8136 161.372 12.7603L164.212 12.5203L163.932 11.8403C163.665 11.1469 163.439 10.6403 163.252 10.3203C162.932 9.70694 162.465 9.38694 161.852 9.36027C161.345 9.30694 160.599 9.29361 159.612 9.32027H158.732C158.572 9.32027 158.439 9.37361 158.332 9.48027C158.252 9.58694 158.212 9.70694 158.212 9.84027C158.239 9.97361 158.292 10.0936 158.372 10.2003C158.479 10.2803 158.612 10.3336 158.772 10.3603H159.972C160.079 10.3603 160.145 10.3736 160.172 10.4003C160.225 10.4269 160.252 10.4803 160.252 10.5603C160.279 10.6403 160.265 10.6936 160.212 10.7203C160.159 10.7203 160.079 10.7203 159.972 10.7203H157.972C157.572 10.7203 157.212 10.6003 156.892 10.3603C156.439 10.0403 155.945 9.70694 155.412 9.36027C155.279 9.25361 155.132 9.21361 154.972 9.24027C154.839 9.24027 154.719 9.30694 154.612 9.44027C154.532 9.54694 154.492 9.68027 154.492 9.84027C154.519 10.0003 154.599 10.1469 154.732 10.2803L156.292 11.6003C156.799 12.0536 157.372 12.2803 158.012 12.2803C158.305 12.2536 158.772 12.2536 159.412 12.2803H160.092C160.572 12.2803 160.905 12.4136 161.092 12.6803ZM157.212 6.56027C157.292 6.26694 157.185 6.04027 156.892 5.88027C156.519 5.69361 155.985 5.38694 155.292 4.96027C155.052 4.88027 154.959 4.74694 155.012 4.56027C155.065 4.37361 155.212 4.28027 155.452 4.28027H155.572C155.732 4.30694 155.825 4.28027 155.852 4.20027C156.065 3.96027 156.412 3.56027 156.892 3.00027L157.092 2.76027L156.252 2.60027C155.879 2.52027 155.585 2.48027 155.372 2.48027C155.052 2.45361 154.745 2.48027 154.452 2.56027L154.252 2.64027C153.505 2.85361 152.932 3.00027 152.532 3.08027C152.425 3.08027 152.372 3.14694 152.372 3.28027V5.76027L152.692 5.68027C152.879 5.62694 153.012 5.58694 153.092 5.56027C153.412 5.42694 153.679 5.50694 153.892 5.80027C154.105 6.01361 154.292 6.14694 154.452 6.20027C155.359 6.52027 156.039 6.74694 156.492 6.88027C156.679 6.93361 156.825 6.93361 156.932 6.88027C157.065 6.80027 157.159 6.69361 157.212 6.56027ZM164.412 12.9203C162.972 13.0803 161.892 13.1869 161.172 13.2403C161.039 13.2403 160.972 13.3203 160.972 13.4803V13.5203C160.972 13.6536 161.039 13.7203 161.172 13.7203H164.012C164.332 13.7203 164.505 13.6936 164.532 13.6403C164.585 13.5869 164.599 13.4003 164.572 13.0803C164.572 12.9736 164.519 12.9203 164.412 12.9203ZM151.652 2.76027C151.572 2.76027 151.465 2.76027 151.332 2.76027C151.225 2.73361 151.172 2.81361 151.172 3.00027C151.252 3.69361 151.345 4.73361 151.452 6.12027C151.479 6.20027 151.505 6.25361 151.532 6.28027C151.585 6.30694 151.652 6.32027 151.732 6.32027C151.892 6.34694 151.959 6.25361 151.932 6.04027C151.932 5.82694 151.945 5.50694 151.972 5.08027V4.04027C151.945 3.61361 151.945 3.28027 151.972 3.04027C151.972 2.90694 151.945 2.82694 151.892 2.80027C151.839 2.74694 151.759 2.73361 151.652 2.76027ZM157.972 4.72027C158.079 4.90694 158.212 5.00027 158.372 5.00027C158.479 5.00027 158.612 4.96027 158.772 4.88027L158.852 4.84027C158.959 4.78694 159.039 4.78694 159.092 4.84027C159.145 4.89361 159.119 4.97361 159.012 5.08027C158.959 5.13361 158.905 5.17361 158.852 5.20027C158.719 5.25361 158.692 5.33361 158.772 5.44027C158.852 5.54694 158.959 5.57361 159.092 5.52027C159.172 5.38694 159.252 5.34694 159.332 5.40027C159.412 5.45361 159.479 5.45361 159.532 5.40027C159.585 5.34694 159.612 5.30694 159.612 5.28027C159.612 5.22694 159.585 5.18694 159.532 5.16027C159.505 5.10694 159.492 5.06694 159.492 5.04027C159.492 4.98694 159.505 4.94694 159.532 4.92027C159.532 4.65361 159.452 4.48027 159.292 4.40027C159.159 4.32027 158.972 4.33361 158.732 4.44027L158.612 4.52027C158.505 4.57361 158.425 4.57361 158.372 4.52027C158.345 4.44027 158.399 4.34694 158.532 4.24027L158.612 4.20027C158.692 4.14694 158.705 4.08027 158.652 4.00027C158.625 3.92027 158.585 3.88027 158.532 3.88027C158.505 3.88027 158.439 3.90694 158.332 3.96027C158.225 4.01361 158.145 4.02694 158.092 4.00027C158.065 3.94694 158.025 3.96027 157.972 4.04027L157.892 4.12027C157.972 4.17361 157.999 4.28027 157.972 4.44027C157.945 4.57361 157.945 4.66694 157.972 4.72027ZM166.692 5.72027C166.852 5.80027 166.999 5.84027 167.132 5.84027C167.292 5.84027 167.412 5.82694 167.492 5.80027L167.572 5.76027C167.679 5.73361 167.745 5.70694 167.772 5.68027C167.905 5.62694 167.999 5.57361 168.052 5.52027C168.132 5.44027 168.185 5.34694 168.212 5.24027L167.892 5.04027C167.839 5.14694 167.785 5.22694 167.732 5.28027C167.705 5.33361 167.652 5.37361 167.572 5.40027L167.212 5.48027C167.132 5.48027 167.012 5.45361 166.852 5.40027C166.799 5.37361 166.719 5.30694 166.612 5.20027C166.559 5.14694 166.505 5.04027 166.452 4.88027C166.399 4.72027 166.372 4.60027 166.372 4.52027C166.372 4.36027 166.385 4.25361 166.412 4.20027L166.452 4.12027C166.505 3.98694 166.545 3.90694 166.572 3.88027C166.679 3.77361 166.772 3.69361 166.852 3.64027C166.932 3.58694 167.039 3.56027 167.172 3.56027L167.372 3.60027C167.399 3.60027 167.452 3.61361 167.532 3.64027L167.572 3.68027C167.599 3.68027 167.652 3.72027 167.732 3.80027C167.759 3.82694 167.799 3.89361 167.852 4.00027L168.172 3.76027C168.092 3.62694 167.972 3.50694 167.812 3.40027C167.679 3.26694 167.492 3.20027 167.252 3.20027C167.012 3.20027 166.825 3.24027 166.692 3.32027L166.572 3.40027C166.439 3.48027 166.345 3.54694 166.292 3.60027C166.159 3.76027 166.065 3.90694 166.012 4.04027C165.985 4.14694 165.972 4.30694 165.972 4.52027C165.972 4.73361 165.985 4.90694 166.012 5.04027C166.065 5.14694 166.159 5.28027 166.292 5.44027C166.425 5.60027 166.559 5.69361 166.692 5.72027ZM170.132 5.36027V4.68027C170.132 4.44027 170.052 4.25361 169.892 4.12027C169.759 3.96027 169.559 3.88027 169.292 3.88027C169.025 3.88027 168.772 3.96027 168.532 4.12027L168.652 4.40027C168.705 4.34694 168.799 4.29361 168.932 4.24027C169.065 4.18694 169.172 4.16027 169.252 4.16027C169.412 4.16027 169.532 4.20027 169.612 4.28027C169.692 4.36027 169.732 4.48027 169.732 4.64027V4.76027L169.492 4.68027C169.465 4.65361 169.399 4.65361 169.292 4.68027H169.212C169.052 4.68027 168.945 4.69361 168.892 4.72027L168.652 4.84027C168.572 4.89361 168.505 4.96027 168.452 5.04027C168.425 5.06694 168.412 5.14694 168.412 5.28027C168.412 5.38694 168.425 5.46694 168.452 5.52027L168.572 5.72027L168.812 5.84027C168.865 5.86694 168.945 5.88027 169.052 5.88027C169.159 5.88027 169.292 5.84027 169.452 5.76027C169.612 5.68027 169.719 5.60027 169.772 5.52027V5.64027L169.852 5.80027C169.879 5.82694 169.945 5.84027 170.052 5.84027H170.252V5.48027H170.132V5.36027ZM169.732 5.24027C169.732 5.26694 169.705 5.30694 169.652 5.36027C169.625 5.41361 169.559 5.46694 169.452 5.52027C169.399 5.54694 169.305 5.56027 169.172 5.56027C169.039 5.56027 168.932 5.53361 168.852 5.48027C168.799 5.40027 168.772 5.32027 168.772 5.24027C168.772 5.13361 168.825 5.05361 168.932 5.00027L168.972 4.96027C169.105 4.90694 169.212 4.88027 169.292 4.88027L169.492 4.92027C169.545 4.92027 169.625 4.94694 169.732 5.00027V5.24027ZM171.332 5.56027C171.092 5.56027 170.852 5.48027 170.612 5.32027L170.452 5.60027L170.652 5.72027L170.852 5.80027C170.905 5.82694 170.985 5.84027 171.092 5.84027L171.332 5.88027L171.652 5.84027C171.732 5.84027 171.812 5.80027 171.892 5.72027C171.972 5.64027 172.025 5.57361 172.052 5.52027C172.105 5.41361 172.132 5.33361 172.132 5.28027C172.132 5.20027 172.119 5.13361 172.092 5.08027C172.065 5.00027 172.012 4.94694 171.932 4.92027L171.692 4.80027L171.372 4.72027L171.172 4.64027C171.172 4.61361 171.145 4.60027 171.092 4.60027C171.065 4.60027 171.039 4.60027 171.012 4.60027L170.972 4.52027C170.945 4.52027 170.932 4.48027 170.932 4.40027C170.932 4.32027 170.972 4.26694 171.052 4.24027C171.159 4.18694 171.239 4.16027 171.292 4.16027C171.479 4.16027 171.679 4.22694 171.892 4.36027L172.052 4.12027C171.999 4.06694 171.892 4.01361 171.732 3.96027C171.572 3.90694 171.425 3.88027 171.292 3.88027C171.159 3.88027 171.065 3.89361 171.012 3.92027L170.772 4.04027C170.719 4.06694 170.665 4.13361 170.612 4.24027C170.585 4.29361 170.572 4.37361 170.572 4.48027V4.68027C170.572 4.70694 170.599 4.73361 170.652 4.76027L170.692 4.80027L171.012 4.96027C171.092 4.98694 171.159 5.00027 171.212 5.00027C171.399 5.02694 171.532 5.06694 171.612 5.12027C171.692 5.14694 171.732 5.20027 171.732 5.28027C171.732 5.36027 171.692 5.44027 171.612 5.52027C171.559 5.54694 171.465 5.56027 171.332 5.56027ZM174.052 4.12027C174.025 4.06694 173.959 4.01361 173.852 3.96027C173.745 3.90694 173.652 3.88027 173.572 3.88027C173.439 3.88027 173.292 3.93361 173.132 4.04027C172.999 4.12027 172.905 4.21361 172.852 4.32027V3.16027H172.452V5.84027H172.852V4.68027L172.932 4.52027C172.959 4.44027 173.012 4.38694 173.092 4.36027L173.172 4.32027C173.199 4.29361 173.225 4.28027 173.252 4.28027C173.279 4.25361 173.332 4.24027 173.412 4.24027C173.519 4.24027 173.599 4.28027 173.652 4.36027C173.732 4.41361 173.772 4.54694 173.772 4.76027V5.84027H174.172V4.68027C174.172 4.54694 174.159 4.44027 174.132 4.36027L174.052 4.12027ZM177.132 5.56027C177.159 5.53361 177.199 5.46694 177.252 5.36027L177.332 5.24027C177.385 5.18694 177.399 5.09361 177.372 4.96027V4.88027C177.372 4.69361 177.359 4.56027 177.332 4.48027L177.132 4.20027C176.999 4.06694 176.892 3.98694 176.812 3.96027C176.652 3.90694 176.519 3.88027 176.412 3.88027C176.305 3.88027 176.172 3.90694 176.012 3.96027C175.879 4.01361 175.759 4.09361 175.652 4.20027C175.572 4.30694 175.519 4.40027 175.492 4.48027C175.439 4.64027 175.412 4.77361 175.412 4.88027C175.412 4.96027 175.439 5.06694 175.492 5.20027C175.545 5.33361 175.599 5.45361 175.652 5.56027C175.732 5.64027 175.825 5.70694 175.932 5.76027L175.972 5.80027C176.052 5.85361 176.199 5.88027 176.412 5.88027C176.519 5.88027 176.652 5.85361 176.812 5.80027C176.892 5.77361 176.999 5.69361 177.132 5.56027ZM176.412 5.52027C176.305 5.52027 176.225 5.50694 176.172 5.48027C176.119 5.45361 176.052 5.41361 175.972 5.36027C175.919 5.28027 175.892 5.21361 175.892 5.16027C175.892 5.10694 175.879 5.05361 175.852 5.00027C175.825 4.94694 175.812 4.90694 175.812 4.88027C175.812 4.82694 175.839 4.74694 175.892 4.64027C175.892 4.56027 175.919 4.49361 175.972 4.44027C176.052 4.36027 176.119 4.30694 176.172 4.28027C176.225 4.25361 176.305 4.24027 176.412 4.24027C176.519 4.24027 176.585 4.25361 176.612 4.28027L176.812 4.40027L176.932 4.60027C176.959 4.65361 176.972 4.74694 176.972 4.88027L176.932 5.12027C176.879 5.22694 176.839 5.29361 176.812 5.32027C176.732 5.40027 176.665 5.45361 176.612 5.48027C176.585 5.50694 176.519 5.52027 176.412 5.52027ZM178.132 4.68027C178.159 4.65361 178.172 4.62694 178.172 4.60027L178.212 4.52027C178.239 4.49361 178.279 4.45361 178.332 4.40027L178.372 4.36027C178.425 4.30694 178.465 4.28027 178.492 4.28027C178.545 4.25361 178.612 4.24027 178.692 4.24027C178.799 4.24027 178.879 4.29361 178.932 4.40027C179.012 4.48027 179.052 4.60027 179.052 4.76027V5.84027H179.452V4.68027C179.452 4.54694 179.439 4.44027 179.412 4.36027L179.332 4.12027C179.305 4.04027 179.239 3.98694 179.132 3.96027C179.052 3.90694 178.972 3.88027 178.892 3.88027C178.732 3.88027 178.572 3.93361 178.412 4.04027C178.252 4.12027 178.145 4.21361 178.092 4.32027V3.92027H177.732V5.84027H178.132V4.68027ZM169.652 8.04027C169.465 7.82694 169.239 7.66694 168.972 7.56027C168.705 7.45361 168.359 7.40027 167.932 7.40027H166.292V11.9603H167.932C168.199 11.9603 168.519 11.9069 168.892 11.8003C169.079 11.7469 169.305 11.5869 169.572 11.3203C169.785 11.1069 169.945 10.8803 170.052 10.6403C170.159 10.3736 170.212 10.0536 170.212 9.68027C170.212 9.44027 170.159 9.13361 170.052 8.76027C169.999 8.60027 169.892 8.40027 169.732 8.16027L169.652 8.04027ZM169.212 10.2403C169.185 10.3469 169.119 10.4936 169.012 10.6803L168.972 10.7203C168.892 10.8269 168.745 10.9336 168.532 11.0403C168.372 11.1203 168.185 11.1603 167.972 11.1603H167.172V8.16027H167.972C168.185 8.16027 168.372 8.20027 168.532 8.28027C168.745 8.38694 168.892 8.49361 168.972 8.60027C169.079 8.68027 169.159 8.82694 169.212 9.04027C169.265 9.17361 169.292 9.38694 169.292 9.68027C169.292 9.94694 169.265 10.1336 169.212 10.2403ZM173.692 9.04027C173.532 8.88027 173.332 8.76027 173.092 8.68027C172.852 8.57361 172.612 8.52027 172.372 8.52027C172.079 8.52027 171.839 8.56027 171.652 8.64027C171.465 8.72027 171.279 8.85361 171.092 9.04027C170.932 9.20027 170.812 9.38694 170.732 9.60027C170.652 9.78694 170.612 10.0003 170.612 10.2403C170.612 10.4803 170.652 10.7203 170.732 10.9603C170.785 11.1203 170.892 11.2936 171.052 11.4803C171.239 11.6403 171.439 11.7736 171.652 11.8803C171.812 11.9603 172.052 12.0003 172.372 12.0003C172.772 12.0003 173.092 11.9336 173.332 11.8003C173.599 11.6403 173.799 11.4136 173.932 11.1203L173.212 10.9203C173.159 11.0536 173.052 11.1603 172.892 11.2403C172.732 11.3203 172.572 11.3603 172.412 11.3603C172.279 11.3603 172.159 11.3469 172.052 11.3203C171.972 11.2669 171.879 11.2003 171.772 11.1203C171.692 11.0403 171.625 10.9603 171.572 10.8803C171.545 10.7736 171.532 10.6536 171.532 10.5203H174.132V10.2403C174.132 10.0003 174.092 9.78694 174.012 9.60027C173.932 9.41361 173.825 9.22694 173.692 9.04027ZM171.492 10.0003C171.492 9.97361 171.505 9.93361 171.532 9.88027C171.532 9.77361 171.559 9.69361 171.612 9.64027C171.665 9.50694 171.719 9.41361 171.772 9.36027C171.852 9.28027 171.945 9.22694 172.052 9.20027C172.105 9.17361 172.212 9.16027 172.372 9.16027C172.585 9.16027 172.772 9.22694 172.932 9.36027C173.092 9.46694 173.199 9.68027 173.252 10.0003H171.492ZM176.052 11.2003C175.999 11.2003 175.932 11.2003 175.852 11.2003C175.639 11.2003 175.532 11.0803 175.532 10.8403V7.24027H174.652V11.1603C174.652 11.4269 174.732 11.6269 174.892 11.7603C175.105 11.9203 175.305 12.0003 175.492 12.0003L175.932 11.9603L176.332 11.8403L176.212 11.1203L176.052 11.2003ZM176.692 8.60027H177.572V11.9603H176.692V8.60027ZM176.692 7.28027H177.572V8.12027H176.692V7.28027ZM179.732 11.2403L178.852 8.60027H177.972L179.212 11.9603H180.132L181.372 8.60027H180.572L179.732 11.2403ZM184.652 9.04027C184.545 8.90694 184.359 8.78694 184.092 8.68027C183.852 8.57361 183.612 8.52027 183.372 8.52027C183.079 8.52027 182.839 8.57361 182.652 8.68027C182.385 8.76027 182.199 8.88027 182.092 9.04027L182.052 9.08027C181.892 9.32027 181.785 9.49361 181.732 9.60027C181.652 9.78694 181.612 10.0003 181.612 10.2403C181.612 10.4803 181.652 10.7203 181.732 10.9603C181.785 11.1203 181.892 11.2936 182.052 11.4803C182.239 11.6403 182.439 11.7736 182.652 11.8803C182.812 11.9603 183.052 12.0003 183.372 12.0003C183.772 12.0003 184.092 11.9203 184.332 11.7603C184.625 11.5469 184.825 11.3336 184.932 11.1203L184.212 10.9203C184.105 11.0803 183.999 11.1869 183.892 11.2403C183.732 11.3203 183.572 11.3603 183.412 11.3603C183.252 11.3603 183.145 11.3469 183.092 11.3203C182.985 11.2669 182.879 11.2003 182.772 11.1203C182.692 11.0403 182.625 10.9603 182.572 10.8803C182.545 10.7736 182.532 10.6536 182.532 10.5203H185.132V10.2403C185.132 10.0003 185.092 9.78694 185.012 9.60027C184.932 9.38694 184.812 9.20027 184.652 9.04027ZM182.492 10.0003C182.492 9.92027 182.505 9.81361 182.532 9.68027L182.572 9.64027L182.772 9.36027C182.852 9.28027 182.945 9.22694 183.052 9.20027C183.105 9.17361 183.212 9.16027 183.372 9.16027C183.585 9.16027 183.772 9.22694 183.932 9.36027C184.092 9.46694 184.199 9.68027 184.252 10.0003H182.492ZM187.492 8.52027C187.305 8.52027 187.105 8.60027 186.892 8.76027C186.705 8.89361 186.559 9.08027 186.452 9.32027V8.60027H185.652V11.9603H186.532V9.92027C186.612 9.70694 186.759 9.56027 186.972 9.48027C187.239 9.37361 187.465 9.32027 187.652 9.32027V8.56027C187.652 8.53361 187.625 8.52027 187.572 8.52027H187.492ZM190.372 8.60027L189.572 11.2003L188.652 8.60027H187.772L189.092 11.9603L188.972 12.3203C188.945 12.4003 188.905 12.4669 188.852 12.5203L188.732 12.6403C188.705 12.6669 188.665 12.6669 188.612 12.6403H188.412C188.305 12.6403 188.225 12.6269 188.172 12.6003V13.3603C188.279 13.3869 188.439 13.4003 188.652 13.4003C188.945 13.4003 189.185 13.3336 189.372 13.2003C189.559 13.0669 189.692 12.8669 189.772 12.6003L191.172 8.60027H190.372Z" fill="#212121"></path></svg>